<svg id="visual" viewBox="0 0 900 600" width="900" height="600" xmlns="http://www.w3.org/2000/svg" xmlns:xlink="http://www.w3.org/1999/xlink" version="1.1"><rect x="0" y="0" width="900" height="600" fill="#b6b6b6"></rect><path d="M0 398L21.5 390.7C43 383.3 86 368.7 128.8 362.2C171.7 355.7 214.3 357.3 257.2 366.7C300 376 343 393 385.8 394.7C428.7 396.3 471.3 382.7 514.2 379C557 375.3 600 381.7 642.8 387C685.7 392.3 728.3 396.7 771.2 396.7C814 396.7 857 392.3 878.5 390.2L900 388L900 601L878.5 601C857 601 814 601 771.2 601C728.3 601 685.7 601 642.8 601C600 601 557 601 514.2 601C471.3 601 428.7 601 385.8 601C343 601 300 601 257.2 601C214.3 601 171.7 601 128.8 601C86 601 43 601 21.5 601L0 601Z" fill="#ffb600"></path><path d="M0 425L21.5 432.2C43 439.3 86 453.7 128.8 458.7C171.7 463.7 214.3 459.3 257.2 447.3C300 435.3 343 415.7 385.8 417.2C428.7 418.7 471.3 441.3 514.2 442.8C557 444.3 600 424.7 642.8 427.2C685.7 429.7 728.3 454.3 771.2 459.8C814 465.3 857 451.7 878.5 444.8L900 438L900 601L878.5 601C857 601 814 601 771.2 601C728.3 601 685.7 601 642.8 601C600 601 557 601 514.2 601C471.3 601 428.7 601 385.8 601C343 601 300 601 257.2 601C214.3 601 171.7 601 128.8 601C86 601 43 601 21.5 601L0 601Z" fill="#ff9e00"></path><path d="M0 466L21.5 471.5C43 477 86 488 128.8 485.3C171.7 482.7 214.3 466.3 257.2 465.3C300 464.3 343 478.7 385.8 487.2C428.7 495.7 471.3 498.3 514.2 493.7C557 489 600 477 642.8 477C685.7 477 728.3 489 771.2 491.7C814 494.3 857 487.7 878.5 484.3L900 481L900 601L878.5 601C857 601 814 601 771.2 601C728.3 601 685.7 601 642.8 601C600 601 557 601 514.2 601C471.3 601 428.7 601 385.8 601C343 601 300 601 257.2 601C214.3 601 171.7 601 128.8 601C86 601 43 601 21.5 601L0 601Z" fill="#ff8500"></path><path d="M0 493L21.5 492.7C43 492.3 86 491.7 128.8 497C171.7 502.3 214.3 513.7 257.2 521.3C300 529 343 533 385.8 531C428.7 529 471.3 521 514.2 513.3C557 505.7 600 498.3 642.8 498.8C685.7 499.3 728.3 507.7 771.2 511.7C814 515.7 857 515.3 878.5 515.2L900 515L900 601L878.5 601C857 601 814 601 771.2 601C728.3 601 685.7 601 642.8 601C600 601 557 601 514.2 601C471.3 601 428.7 601 385.8 601C343 601 300 601 257.2 601C214.3 601 171.7 601 128.8 601C86 601 43 601 21.5 601L0 601Z" fill="#ff6a00"></path><path d="M0 547L21.5 549.3C43 551.7 86 556.3 128.8 554.7C171.7 553 214.3 545 257.2 540.5C300 536 343 535 385.8 534C428.7 533 471.3 532 514.2 532.2C557 532.3 600 533.7 642.8 539C685.7 544.3 728.3 553.7 771.2 552.7C814 551.7 857 540.3 878.5 534.7L900 529L900 601L878.5 601C857 601 814 601 771.2 601C728.3 601 685.7 601 642.8 601C600 601 557 601 514.2 601C471.3 601 428.7 601 385.8 601C343 601 300 601 257.2 601C214.3 601 171.7 601 128.8 601C86 601 43 601 21.5 601L0 601Z" fill="#ff4800"></path></svg>